<svg xmlns="http://www.w3.org/2000/svg" viewBox="0 0 960 640"><rect width="960" height="640" fill="#F0EDCC"/><circle cx="480" cy="170" r="52" fill="#02343F"/><g fill="none" stroke="#02343F" stroke-width="2"><path d="M120 200Q300 190 480 340Q660 190 840 200"/><path d="M158 222Q300 212 480 362Q660 212 802 222"/><path d="M196 244Q300 234 480 384Q660 234 764 244"/><path d="M234 266Q300 256 480 406Q660 256 726 266"/><path d="M272 288Q300 278 480 428Q660 278 688 288"/><path d="M310 310Q300 300 480 450Q660 300 650 310"/></g></svg>