<svg xmlns="http://www.w3.org/2000/svg" width="300" height="250" viewBox="0 0 300 250"><g font-family="Arial, sans-serif"><rect x="42" y="0" width="260" height="250" rx="14" fill="#F8FAFC" stroke="none"/><path d="M56 0h246v22H42v-8A14 14 0 0 1 56 0Z" fill="#011F26"/><circle cx="56" cy="11" r="3" fill="#A5B4B7"/><circle cx="68" cy="11" r="3" fill="#A5B4B7"/><circle cx="80" cy="11" r="3" fill="#A5B4B7"/><circle cx="70" cy="52" r="13" fill="#E2E8F0"/><text x="61" y="56" font-size="10" fill="#334155" font-weight="700">You</text><text x="94" y="49" font-size="8" fill="#68809C" font-weight="400">You</text><text x="94" y="67" font-size="9" fill="#334155" font-weight="400">What should I practise next?</text><circle cx="70" cy="105" r="13" fill="#40656D"/><text x="64" y="109" font-size="14" fill="white" font-weight="400">?</text><text x="94" y="101" font-size="8" fill="#68809C" font-weight="400">Teacher</text><text x="94" y="120" font-size="10" fill="#334155" font-weight="400">Let?s revisit your last lesson. Take</text><text x="94" y="134" font-size="10" fill="#334155" font-weight="400">each ayah slowly, focus on your</text><text x="94" y="148" font-size="10" fill="#334155" font-weight="400">pronunciation, and we?ll build</text><text x="94" y="162" font-size="10" fill="#334155" font-weight="400">your confidence together.</text><rect x="4" y="167" width="286" height="49" rx="24" fill="#40656D" stroke="none"/><rect x="10" y="173" width="279" height="37" rx="19" fill="white" stroke="none"/><circle cx="29" cy="191" r="12" fill="#40656D"/><text x="23" y="196" font-size="15" fill="white" font-weight="400">?</text><text x="49" y="195" font-size="12" fill="#02343F" font-weight="400">Ask your teacher</text></g></svg>
